# xmcd
#
# Track frame offsets:
#	150
#	11125
#	26191
#	40297
#	62501
#	85855
#	98177
#	116061
#	146898
#	160107
#	175485
#	189511
#	213941
#	232109
#	246124
#	265240
#	282583
#	299145
#	323594
#	340949
#
# Disc length: 4788 seconds
#
# Revision: 5
# Processed by: cddbd v1.5.2PL0 Copyright (c) Steve Scherf et al.
# Submitted via: EasyCDDAExtractor 11.0.3.1
#
DISCID=3712b214
DTITLE=Various Artist - East Coast Blues and Roots Festival 2003 [Disc 2]
DYEAR=2003
DGENRE=Blues-Various
TTITLE0=Violent Femmes - Blister in the Sun
TTITLE1=Yothu Yindi - Dots on the shells
TTITLE2=Terrance Simien - That was your mother
TTITLE3=Eric Burdon - House of the rising sun
TTITLE4=Marva Wright - I'm still wearing your name
TTITLE5=Love - She comes in colours
TTITLE6=Roy Ayers - Everybody loves the sunshine
TTITLE7=Paul Kelly - From little things big things grow
TTITLE8=Love and Special Sauce - Rodeo Clowns
TTITLE9=Canned Heat - On the road again
TTITLE10=Keb Mo - Tell everybody I know
TTITLE11=Bela Fleck and The Flecktones - Slow walker
TTITLE12=The Neville Brothers - Yellow moon
TTITLE13=John Mayall - Hard road
TTITLE14=Kenny Wayne Shepherd Band - Aberdeen
TTITLE15=ZZ Top - La Grange
TTITLE16=Tony Joe White - Polk Salad Annie
TTITLE17=Luka Bloom - I need love
TTITLE18=Little Feat - Dixie Chicken
TTITLE19=John Butler Trio - Betterman
EXTD=YEAR: 2003 ID3G: 0
EXTT0=
EXTT1=
EXTT2=
EXTT3=
EXTT4=
EXTT5=
EXTT6=
EXTT7=
EXTT8=
EXTT9=
EXTT10=
EXTT11=
EXTT12=
EXTT13=
EXTT14=
EXTT15=
EXTT16=
EXTT17=
EXTT18=
EXTT19=
PLAYORDER=
